<?xml version="1.0" encoding="utf-8"?>
<!-- Generator: Adobe Illustrator 19.2.1, SVG Export Plug-In . SVG Version: 6.00 Build 0)  -->
<svg version="1.0" id="Calque_1" xmlns="http://www.w3.org/2000/svg" xmlns:xlink="http://www.w3.org/1999/xlink" x="0px" y="0px"
	 viewBox="0 0 50 50.1" style="enable-background:new 0 0 50 50.1;" xml:space="preserve">
<style type="text/css">
	.st0{fill:#37474F;}
	.st1{fill:none;}
</style>
<g>
	<path class="st0" d="M42.1,23.9v4.7c0,0.6-0.2,1.2-0.7,1.7c-0.5,0.5-1,0.7-1.7,0.7H29.7V41c0,0.6-0.2,1.2-0.7,1.7
		c-0.5,0.5-1,0.7-1.7,0.7h-4.7c-0.6,0-1.2-0.2-1.7-0.7c-0.5-0.5-0.7-1-0.7-1.7V30.9H10.2c-0.6,0-1.2-0.2-1.7-0.7
		c-0.5-0.5-0.7-1-0.7-1.7v-4.7c0-0.6,0.2-1.2,0.7-1.7c0.5-0.5,1-0.7,1.7-0.7h10.1V11.5c0-0.6,0.2-1.2,0.7-1.7c0.5-0.5,1-0.7,1.7-0.7
		h4.7c0.6,0,1.2,0.2,1.7,0.7c0.5,0.5,0.7,1,0.7,1.7v10.1h10.1c0.6,0,1.2,0.2,1.7,0.7C41.9,22.7,42.1,23.2,42.1,23.9z"/>
</g>
<rect class="st1" width="50" height="50"/>
</svg>
